<svg width="104" height="29" viewBox="0 0 104 29" fill="none" xmlns="http://www.w3.org/2000/svg">
<g opacity="0.9">
<path d="M17.28 3.95H10.32V23H7.42501V3.95H0.450012V1.505H17.28V3.95Z" fill="#F5F9FC"/>
<path d="M19.0641 10.85C19.5441 9.81 20.1341 9 20.8341 8.42C21.5341 7.83 22.3891 7.535 23.3991 7.535C23.7191 7.535 24.0241 7.57 24.3141 7.64C24.6141 7.71 24.8791 7.82 25.1091 7.97L24.9141 9.965C24.8541 10.215 24.7041 10.34 24.4641 10.34C24.3241 10.34 24.1191 10.31 23.8491 10.25C23.5791 10.19 23.2741 10.16 22.9341 10.16C22.4541 10.16 22.0241 10.23 21.6441 10.37C21.2741 10.51 20.9391 10.72 20.6391 11C20.3491 11.27 20.0841 11.61 19.8441 12.02C19.6141 12.42 19.4041 12.88 19.2141 13.4V23H16.5291V7.805H18.0591C18.3491 7.805 18.5491 7.86 18.6591 7.97C18.7691 8.08 18.8441 8.27 18.8841 8.54L19.0641 10.85Z" fill="#F5F9FC"/>
<path d="M35.4574 16.16C34.2274 16.2 33.1774 16.3 32.3074 16.46C31.4474 16.61 30.7424 16.81 30.1924 17.06C29.6524 17.31 29.2574 17.605 29.0074 17.945C28.7674 18.285 28.6474 18.665 28.6474 19.085C28.6474 19.485 28.7124 19.83 28.8424 20.12C28.9724 20.41 29.1474 20.65 29.3674 20.84C29.5974 21.02 29.8624 21.155 30.1624 21.245C30.4724 21.325 30.8024 21.365 31.1524 21.365C31.6224 21.365 32.0524 21.32 32.4424 21.23C32.8324 21.13 33.1974 20.99 33.5374 20.81C33.8874 20.63 34.2174 20.415 34.5274 20.165C34.8474 19.915 35.1574 19.63 35.4574 19.31V16.16ZM26.8324 9.95C27.6724 9.14 28.5774 8.535 29.5474 8.135C30.5174 7.735 31.5924 7.535 32.7724 7.535C33.6224 7.535 34.3774 7.675 35.0374 7.955C35.6974 8.235 36.2524 8.625 36.7024 9.125C37.1524 9.625 37.4924 10.23 37.7224 10.94C37.9524 11.65 38.0674 12.43 38.0674 13.28V23H36.8824C36.6224 23 36.4224 22.96 36.2824 22.88C36.1424 22.79 36.0324 22.62 35.9524 22.37L35.6524 20.93C35.2524 21.3 34.8624 21.63 34.4824 21.92C34.1024 22.2 33.7024 22.44 33.2824 22.64C32.8624 22.83 32.4124 22.975 31.9324 23.075C31.4624 23.185 30.9374 23.24 30.3574 23.24C29.7674 23.24 29.2124 23.16 28.6924 23C28.1724 22.83 27.7174 22.58 27.3274 22.25C26.9474 21.92 26.6424 21.505 26.4124 21.005C26.1924 20.495 26.0824 19.895 26.0824 19.205C26.0824 18.605 26.2474 18.03 26.5774 17.48C26.9074 16.92 27.4424 16.425 28.1824 15.995C28.9224 15.565 29.8874 15.215 31.0774 14.945C32.2674 14.665 33.7274 14.505 35.4574 14.465V13.28C35.4574 12.1 35.2024 11.21 34.6924 10.61C34.1824 10 33.4374 9.695 32.4574 9.695C31.7974 9.695 31.2424 9.78 30.7924 9.95C30.3524 10.11 29.9674 10.295 29.6374 10.505C29.3174 10.705 29.0374 10.89 28.7974 11.06C28.5674 11.22 28.3374 11.3 28.1074 11.3C27.9274 11.3 27.7724 11.255 27.6424 11.165C27.5124 11.065 27.4024 10.945 27.3124 10.805L26.8324 9.95Z" fill="#F5F9FC"/>
<path d="M54.8323 7.805L48.6373 23H46.2373L40.0423 7.805H42.2173C42.4373 7.805 42.6173 7.86 42.7573 7.97C42.8973 8.08 42.9923 8.21 43.0423 8.36L46.8973 18.14C47.0173 18.51 47.1223 18.87 47.2123 19.22C47.3023 19.57 47.3873 19.92 47.4673 20.27C47.5473 19.92 47.6323 19.57 47.7223 19.22C47.8123 18.87 47.9223 18.51 48.0523 18.14L51.9523 8.36C52.0123 8.2 52.1123 8.07 52.2523 7.97C52.3923 7.86 52.5573 7.805 52.7473 7.805H54.8323Z" fill="#F5F9FC"/>
<path d="M67.0409 13.745C67.0409 13.125 66.9509 12.56 66.7709 12.05C66.6009 11.53 66.3459 11.085 66.0059 10.715C65.6759 10.335 65.2709 10.045 64.7909 9.845C64.3109 9.635 63.7659 9.53 63.1559 9.53C61.8759 9.53 60.8609 9.905 60.1109 10.655C59.3709 11.395 58.9109 12.425 58.7309 13.745H67.0409ZM69.2009 20.87C68.8709 21.27 68.4759 21.62 68.0159 21.92C67.5559 22.21 67.0609 22.45 66.5309 22.64C66.0109 22.83 65.4709 22.97 64.9109 23.06C64.3509 23.16 63.7959 23.21 63.2459 23.21C62.1959 23.21 61.2259 23.035 60.3359 22.685C59.4559 22.325 58.6909 21.805 58.0409 21.125C57.4009 20.435 56.9009 19.585 56.5409 18.575C56.1809 17.565 56.0009 16.405 56.0009 15.095C56.0009 14.035 56.1609 13.045 56.4809 12.125C56.8109 11.205 57.2809 10.41 57.8909 9.74C58.5009 9.06 59.2459 8.53 60.1259 8.15C61.0059 7.76 61.9959 7.565 63.0959 7.565C64.0059 7.565 64.8459 7.72 65.6159 8.03C66.3959 8.33 67.0659 8.77 67.6259 9.35C68.1959 9.92 68.6409 10.63 68.9609 11.48C69.2809 12.32 69.4409 13.28 69.4409 14.36C69.4409 14.78 69.3959 15.06 69.3059 15.2C69.2159 15.34 69.0459 15.41 68.7959 15.41H58.6409C58.6709 16.37 58.8009 17.205 59.0309 17.915C59.2709 18.625 59.6009 19.22 60.0209 19.7C60.4409 20.17 60.9409 20.525 61.5209 20.765C62.1009 20.995 62.7509 21.11 63.4709 21.11C64.1409 21.11 64.7159 21.035 65.1959 20.885C65.6859 20.725 66.1059 20.555 66.4559 20.375C66.8059 20.195 67.0959 20.03 67.3259 19.88C67.5659 19.72 67.7709 19.64 67.9409 19.64C68.1609 19.64 68.3309 19.725 68.4509 19.895L69.2009 20.87Z" fill="#F5F9FC"/>
<path d="M75.2555 10.85C75.7355 9.81 76.3255 9 77.0255 8.42C77.7255 7.83 78.5805 7.535 79.5905 7.535C79.9105 7.535 80.2155 7.57 80.5055 7.64C80.8055 7.71 81.0705 7.82 81.3005 7.97L81.1055 9.965C81.0455 10.215 80.8955 10.34 80.6555 10.34C80.5155 10.34 80.3105 10.31 80.0405 10.25C79.7705 10.19 79.4655 10.16 79.1255 10.16C78.6455 10.16 78.2155 10.23 77.8355 10.37C77.4655 10.51 77.1305 10.72 76.8305 11C76.5405 11.27 76.2755 11.61 76.0355 12.02C75.8055 12.42 75.5955 12.88 75.4055 13.4V23H72.7205V7.805H74.2505C74.5405 7.805 74.7405 7.86 74.8505 7.97C74.9605 8.08 75.0355 8.27 75.0755 8.54L75.2555 10.85Z" fill="#F5F9FC"/>
<path d="M86.4082 0.904999V23H83.7382V0.904999H86.4082Z" fill="#F5F9FC"/>
<path d="M103.848 7.805L95.3731 27.485C95.2831 27.685 95.1681 27.845 95.0281 27.965C94.8981 28.085 94.6931 28.145 94.4131 28.145H92.4331L95.2081 22.115L88.9381 7.805H91.2481C91.4781 7.805 91.6581 7.865 91.7881 7.985C91.9281 8.095 92.0231 8.22 92.0731 8.36L96.1381 17.93C96.2981 18.35 96.4331 18.79 96.5431 19.25C96.6831 18.78 96.8331 18.335 96.9931 17.915L100.938 8.36C100.998 8.2 101.098 8.07 101.238 7.97C101.388 7.86 101.553 7.805 101.733 7.805H103.848Z" fill="#F5F9FC"/>
</g>
</svg>
